<svg width="1920" height="1080" viewBox="0 0 1920 1080" fill="none" xmlns="http://www.w3.org/2000/svg">
<g clip-path="url(#clip0_340_61)">
<rect width="1920" height="1080" fill="url(#paint0_linear_340_61)"/>
<path d="M16.688 1087.08C28.4468 1099.49 28.4756 1119.64 16.7528 1132.08L-72.7312 1227.08C-84.454 1239.52 -84.4252 1259.67 -72.6664 1272.07C-60.9076 1284.48 -60.8788 1304.63 -72.6016 1317.07L-91.3744 1337C-103.097 1349.45 -103.068 1369.59 -91.3096 1382C-79.5508 1394.41 -60.5152 1394.38 -48.7912 1381.93L252.958 1061.6C264.681 1049.16 264.652 1029.01 252.894 1016.61C241.135 1004.2 241.106 984.054 252.829 971.608L271.602 951.68C283.324 939.235 283.296 919.089 271.537 906.681C259.778 894.275 259.749 874.127 271.472 861.684L360.955 766.692C372.678 754.247 372.649 734.101 360.89 721.694C349.131 709.288 330.096 709.318 318.373 721.763L268.159 775.069C256.436 787.513 237.4 787.544 225.642 775.137C213.883 762.731 194.847 762.761 183.123 775.206L117.652 844.707C105.93 857.151 86.8928 857.182 75.1352 844.775C63.3764 832.369 63.3476 812.223 75.0704 799.778L101.272 771.964C112.995 759.519 112.966 739.373 101.208 726.965C89.4488 714.558 89.42 694.412 101.143 681.968L154.54 625.282C166.263 612.838 166.234 592.692 154.476 580.285C142.717 567.878 123.681 567.909 111.957 580.354L58.5584 637.039C46.8356 649.484 27.8 649.514 16.0412 637.107C4.28244 624.701 -14.7532 624.731 -26.4772 637.176L-328.227 957.498C-339.95 969.943 -339.921 990.089 -328.162 1002.5C-316.403 1014.9 -297.368 1014.87 -285.644 1002.43L-232.246 945.741C-220.523 933.297 -201.488 933.266 -189.729 945.673C-177.97 958.08 -177.941 978.227 -189.664 990.672L-243.063 1047.36C-254.786 1059.8 -254.757 1079.95 -242.998 1092.35C-231.239 1104.76 -231.21 1124.91 -242.933 1137.35L-269.135 1165.17C-280.858 1177.61 -280.829 1197.76 -269.07 1210.17C-257.312 1222.57 -238.276 1222.54 -226.552 1210.1L-161.081 1140.6C-149.358 1128.15 -130.323 1128.12 -118.563 1140.53C-106.804 1152.93 -87.7684 1152.9 -76.0456 1140.46L-25.8316 1087.15C-14.1076 1074.71 4.92924 1074.68 16.688 1087.08Z" fill="url(#paint1_linear_340_61)"/>
<path d="M473.659 1433.58L451.787 1456.8C439.798 1469.52 439.828 1490.13 451.853 1502.82C463.878 1515.5 483.346 1515.47 495.334 1502.75L579.144 1413.78C591.133 1401.05 610.6 1401.02 622.626 1413.71C634.651 1426.39 634.681 1447 622.692 1459.72L538.882 1548.69C526.893 1561.42 526.922 1582.02 538.948 1594.71C550.973 1607.4 570.441 1607.37 582.43 1594.64L629.036 1545.17C641.026 1532.44 660.493 1532.41 672.518 1545.1C684.544 1557.78 684.574 1578.39 672.585 1591.11L589.361 1679.46C577.372 1692.19 577.402 1712.79 589.427 1725.48C601.452 1738.17 620.92 1738.14 632.908 1725.41L974.537 1362.75C986.526 1350.02 986.496 1329.42 974.471 1316.73C962.446 1304.04 962.416 1283.44 974.405 1270.71L1057.63 1182.36C1069.62 1169.64 1069.59 1149.03 1057.56 1136.35C1045.54 1123.66 1026.07 1123.69 1014.08 1136.42L967.474 1185.89C955.485 1198.62 936.018 1198.65 923.992 1185.96C911.967 1173.27 911.937 1152.67 923.926 1139.94L1007.74 1050.97C1019.73 1038.25 1019.7 1017.64 1007.67 1004.96C995.645 992.267 976.177 992.299 964.188 1005.03L880.378 1094C868.388 1106.72 848.921 1106.75 836.896 1094.07C824.871 1081.38 824.841 1060.77 836.83 1048.05L858.702 1024.83C870.691 1012.1 870.661 991.499 858.636 978.81C846.611 966.122 827.143 966.153 815.154 978.88L473.525 1341.54C461.536 1354.27 461.566 1374.87 473.591 1387.56C485.618 1400.25 485.648 1420.85 473.659 1433.58Z" fill="url(#paint2_linear_340_61)"/>
<path d="M324.304 1565.16L355.632 1531.9C367.621 1519.18 387.088 1519.15 399.114 1531.83C411.139 1544.52 430.607 1544.49 442.596 1531.76L784.486 1168.83C796.331 1156.25 796.302 1135.9 784.42 1123.36L783.899 1122.81C772.018 1110.27 752.783 1110.3 740.938 1122.88L709.349 1156.41C697.36 1169.14 677.892 1169.17 665.867 1156.48C653.842 1143.79 653.812 1123.19 665.801 1110.46L674.879 1100.83C686.724 1088.25 686.695 1067.9 674.813 1055.36L674.292 1054.81C662.411 1042.27 662.381 1021.92 674.226 1009.34C686.071 996.769 686.042 976.412 674.16 963.876L673.639 963.326C661.758 950.79 642.523 950.82 630.678 963.395L596.42 999.761C584.575 1012.34 565.34 1012.37 553.459 999.831L552.938 999.281C541.057 986.745 521.822 986.775 509.977 999.351L168.088 1362.29C156.098 1375.01 156.128 1395.62 168.154 1408.31C180.179 1420.99 199.646 1420.96 211.636 1408.24L245.893 1371.87C257.596 1359.45 276.596 1359.42 288.334 1371.8L289.376 1372.9C301.114 1385.29 301.142 1405.4 289.441 1417.82C277.452 1430.54 277.482 1451.15 289.507 1463.84C301.532 1476.52 301.562 1497.13 289.573 1509.85L280.756 1519.21C268.766 1531.94 268.796 1552.54 280.822 1565.23C292.848 1577.92 312.316 1577.89 324.304 1565.16Z" fill="url(#paint3_linear_340_61)"/>
<path d="M-75.1706 1285.3L-242.701 1463.14C-254.691 1475.87 -254.661 1496.47 -242.635 1509.16C-230.61 1521.85 -211.143 1521.82 -199.153 1509.09L-132.405 1438.23C-120.415 1425.51 -100.948 1425.47 -88.9226 1438.16C-76.8974 1450.85 -76.8674 1471.45 -88.8566 1484.18L-182.743 1583.85C-194.733 1596.57 -194.703 1617.18 -182.677 1629.87C-170.652 1642.56 -151.185 1642.52 -139.195 1629.8L-119.76 1609.16C-107.771 1596.44 -88.3034 1596.41 -76.2782 1609.09C-64.253 1621.78 -44.7854 1621.75 -32.7962 1609.02L8.51862 1565.17C20.5078 1552.44 39.9742 1552.41 52.0006 1565.1L53.0542 1566.21C64.4974 1578.28 64.5262 1597.89 53.1166 1610C41.1274 1622.73 41.1574 1643.33 53.1826 1656.02C65.2078 1668.71 84.6754 1668.67 96.6646 1655.95L529.943 1196C541.641 1183.58 541.613 1163.47 529.878 1151.09L528.824 1149.98C517.089 1137.6 517.061 1117.49 528.759 1105.07C540.458 1092.66 540.429 1072.55 528.695 1060.17L527.641 1059.06C515.906 1046.68 496.91 1046.71 485.211 1059.13L442.847 1104.1C431.148 1116.52 412.152 1116.55 400.417 1104.17L399.363 1103.06C387.629 1090.68 368.633 1090.71 356.934 1103.13L336.973 1124.32C324.984 1137.04 305.517 1137.08 293.491 1124.39C281.466 1111.7 281.436 1091.09 293.425 1078.37L387.836 978.143C399.535 965.724 399.506 945.62 387.771 933.239L386.718 932.127C374.983 919.746 355.987 919.777 344.288 932.196L277.014 1003.61C265.025 1016.34 245.558 1016.37 233.532 1003.68C221.507 990.992 221.477 970.39 233.466 957.662L401.523 779.258C413.222 766.838 413.193 746.734 401.459 734.353L400.405 733.242C388.67 720.86 369.674 720.891 357.975 733.31L-75.3026 1193.26C-87.2918 1205.99 -87.2618 1226.59 -75.2366 1239.28C-63.2114 1251.97 -63.1814 1272.57 -75.1706 1285.3Z" fill="url(#paint4_linear_340_61)"/>
<path d="M429.203 1010.7C446.184 1010.7 459.95 996.135 459.95 978.164C459.95 960.193 446.184 945.624 429.203 945.624C412.223 945.624 398.457 960.193 398.457 978.164C398.457 996.135 412.223 1010.7 429.203 1010.7Z" fill="url(#paint5_linear_340_61)"/>
<path d="M235.414 753.335C252.395 753.335 266.161 738.767 266.161 720.795C266.161 702.824 252.395 688.255 235.414 688.255C218.434 688.255 204.668 702.824 204.668 720.795C204.668 738.767 218.434 753.335 235.414 753.335Z" fill="url(#paint6_linear_340_61)"/>
<path d="M1148.16 1740.41L1147.64 1739.86C1135.76 1727.32 1135.73 1706.96 1147.57 1694.39L1152.67 1688.98C1164.51 1676.41 1164.48 1656.05 1152.6 1643.52L1152.08 1642.97C1140.2 1630.43 1140.17 1610.07 1152.02 1597.5L1197.94 1548.74C1209.93 1536.02 1209.9 1515.41 1197.88 1502.73C1185.85 1490.04 1166.38 1490.07 1154.39 1502.8L1086.52 1574.85C1074.68 1587.42 1055.44 1587.45 1043.56 1574.92L1043.04 1574.37C1031.16 1561.83 1031.13 1541.47 1042.98 1528.9L1192.34 1370.34C1204.33 1357.61 1204.3 1337.01 1192.28 1324.32C1180.25 1311.63 1160.78 1311.66 1148.79 1324.39L999.429 1482.95C987.583 1495.52 968.348 1495.56 956.467 1483.02L955.945 1482.47C944.064 1469.93 944.035 1449.57 955.882 1437L1297.77 1074.06C1309.76 1061.34 1329.23 1061.31 1341.25 1073.99C1353.28 1086.68 1372.74 1086.65 1384.73 1073.92L1533.84 915.638C1545.83 902.911 1565.3 902.879 1577.32 915.568C1589.35 928.257 1589.38 948.858 1577.39 961.586L1428.28 1119.87C1416.29 1132.6 1416.32 1153.2 1428.35 1165.89C1440.37 1178.58 1459.84 1178.55 1471.83 1165.82L1539.44 1094.05C1551.43 1081.32 1570.9 1081.29 1582.92 1093.98C1594.95 1106.67 1594.98 1127.27 1582.99 1139.99L1537.32 1188.47C1525.33 1201.2 1525.36 1221.8 1537.39 1234.49C1549.41 1247.18 1549.44 1267.78 1537.45 1280.51L1532.88 1285.37C1520.89 1298.09 1520.92 1318.7 1532.94 1331.39C1544.97 1344.07 1545 1364.68 1533.01 1377.4L1191.12 1740.34C1179.27 1752.91 1160.04 1752.94 1148.16 1740.41Z" fill="url(#paint7_linear_340_61)"/>
<path d="M1366.64 1066.22C1383.62 1066.22 1397.38 1051.66 1397.38 1033.68C1397.38 1015.71 1383.62 1001.14 1366.64 1001.14C1349.65 1001.14 1335.89 1015.71 1335.89 1033.68C1335.89 1051.66 1349.65 1066.22 1366.64 1066.22Z" fill="url(#paint8_linear_340_61)"/>
<path d="M2334.78 -93.5948L2334.26 -94.1447C2322.38 -106.68 2303.14 -106.648 2291.3 -94.0736L2286.2 -88.6685C2274.36 -76.0942 2255.12 -76.0624 2243.24 -88.5974L2242.72 -89.1473C2230.84 -101.682 2211.6 -101.65 2199.76 -89.0749L2153.83 -40.3234C2141.84 -27.5967 2122.38 -27.565 2110.35 -40.2535C2098.32 -52.9421 2098.29 -73.544 2110.28 -86.272L2178.16 -158.323C2190 -170.897 2189.97 -191.254 2178.09 -203.789L2177.57 -204.339C2165.69 -216.875 2146.45 -216.843 2134.61 -204.268L1985.24 -45.7069C1973.25 -32.9802 1953.78 -32.9485 1941.76 -45.6371C1929.73 -58.3256 1929.7 -78.9276 1941.69 -91.6555L2091.06 -250.218C2102.91 -262.792 2102.88 -283.149 2090.99 -295.685L2090.47 -296.235C2078.59 -308.771 2059.36 -308.739 2047.51 -296.165L1705.62 66.7719C1693.63 79.4986 1693.66 100.102 1705.69 112.79C1717.71 125.479 1717.74 146.081 1705.76 158.809L1556.65 317.094C1544.66 329.821 1544.69 350.424 1556.71 363.111C1568.74 375.8 1588.21 375.768 1600.2 363.041L1749.3 204.756C1761.29 192.029 1780.76 191.998 1792.79 204.686C1804.81 217.375 1804.84 237.977 1792.85 250.705L1725.24 322.479C1713.25 335.205 1713.28 355.809 1725.31 368.496C1737.33 381.185 1756.8 381.153 1768.79 368.426L1814.45 319.948C1826.44 307.221 1845.91 307.189 1857.94 319.878C1869.96 332.566 1889.43 332.535 1901.42 319.808L1905.99 314.95C1917.98 302.224 1937.45 302.192 1949.48 314.88C1961.5 327.569 1980.97 327.537 1992.96 314.811L2334.85 -48.1263C2346.69 -60.7018 2346.66 -81.0586 2334.78 -93.5948Z" fill="url(#paint9_linear_340_61)"/>
<path d="M1825.95 46.0875C1837.71 58.4941 1837.74 78.6401 1826.01 91.0861L1736.53 186.078C1724.81 198.523 1724.84 218.669 1736.59 231.077C1748.35 243.484 1748.38 263.63 1736.66 276.074L1717.89 296.002C1706.16 308.447 1706.19 328.593 1717.95 341.001C1729.71 353.407 1748.75 353.377 1760.47 340.932L2062.22 20.6062C2073.94 8.16145 2073.91 -11.9846 2062.15 -24.3925C2050.39 -36.7991 2050.37 -56.9451 2062.09 -69.3898L2080.86 -89.3174C2092.58 -101.762 2092.56 -121.908 2080.8 -134.316C2069.04 -146.723 2069.01 -166.869 2080.73 -179.313L2170.21 -274.306C2181.94 -286.75 2181.91 -306.896 2170.15 -319.303C2158.39 -331.71 2139.36 -331.679 2127.63 -319.234L2077.42 -265.929C2065.69 -253.484 2046.66 -253.454 2034.9 -265.86C2023.14 -278.267 2004.11 -278.236 1992.38 -265.792L1926.91 -196.291C1915.19 -183.846 1896.15 -183.816 1884.39 -196.222C1872.63 -208.629 1872.6 -228.776 1884.33 -241.221L1910.53 -269.035C1922.25 -281.48 1922.22 -301.626 1910.47 -314.033C1898.71 -326.439 1898.68 -346.586 1910.4 -359.031L1963.8 -415.716C1975.52 -428.161 1975.49 -448.307 1963.73 -460.715C1951.97 -473.122 1932.94 -473.091 1921.21 -460.646L1867.82 -403.961C1856.09 -391.516 1837.06 -391.486 1825.3 -403.893C1813.54 -416.299 1794.51 -416.269 1782.78 -403.824L1481.03 -83.4995C1469.31 -71.0548 1469.34 -50.9088 1481.1 -38.5022C1492.86 -26.0956 1511.89 -26.126 1523.62 -38.5708L1577.01 -95.2559C1588.74 -107.701 1607.77 -107.731 1619.53 -95.3245C1631.29 -82.9179 1631.32 -62.7719 1619.6 -50.3271L1566.2 6.35802C1554.48 18.8027 1554.51 38.9488 1566.26 51.3554C1578.02 63.762 1578.05 83.908 1566.33 96.3528L1540.13 124.17C1528.4 136.614 1528.43 156.76 1540.19 169.167C1551.95 181.574 1570.99 181.543 1582.71 169.098L1648.18 99.5976C1659.9 87.1529 1678.94 87.1224 1690.7 99.529C1702.46 111.936 1721.49 111.905 1733.22 99.4605L1783.43 46.1547C1795.15 33.71 1814.19 33.6796 1825.95 46.0875Z" fill="url(#paint10_linear_340_61)"/>
<path d="M1907.13 428.24C1924.11 428.24 1937.87 413.671 1937.87 395.7C1937.87 377.729 1924.11 363.16 1907.13 363.16C1890.15 363.16 1876.38 377.729 1876.38 395.7C1876.38 413.671 1890.15 428.24 1907.13 428.24Z" fill="url(#paint11_linear_340_61)"/>
<path d="M1501.75 263.041C1518.73 263.041 1532.49 248.472 1532.49 230.501C1532.49 212.53 1518.73 197.961 1501.75 197.961C1484.77 197.961 1471 212.53 1471 230.501C1471 248.472 1484.77 263.041 1501.75 263.041Z" fill="url(#paint12_linear_340_61)"/>
</g>
<defs>
<linearGradient id="paint0_linear_340_61" x1="1875" y1="55.9999" x2="8.16655e-05" y2="1080" gradientUnits="userSpaceOnUse">
<stop stop-color="#D24545"/>
<stop offset="1" stop-color="#A94438"/>
</linearGradient>
<linearGradient id="paint1_linear_340_61" x1="-257.309" y1="981.598" x2="449.752" y2="980.596" gradientUnits="userSpaceOnUse">
<stop stop-color="#FFC3C3"/>
<stop offset="1" stop-color="#E4DEBE"/>
</linearGradient>
<linearGradient id="paint2_linear_340_61" x1="442.635" y1="1352.59" x2="1066.88" y2="1351.71" gradientUnits="userSpaceOnUse">
<stop stop-color="#E4DEBE"/>
<stop offset="0.9992" stop-color="#D24545"/>
</linearGradient>
<linearGradient id="paint3_linear_340_61" x1="158.945" y1="1264.84" x2="793.516" y2="1263.94" gradientUnits="userSpaceOnUse">
<stop stop-color="#E4DEBE"/>
<stop offset="1" stop-color="#D24545"/>
</linearGradient>
<linearGradient id="paint4_linear_340_61" x1="-252.085" y1="1195.5" x2="538.727" y2="1194.38" gradientUnits="userSpaceOnUse">
<stop stop-color="#E4DEBE"/>
<stop offset="1" stop-color="#FFB6B6"/>
</linearGradient>
<linearGradient id="paint5_linear_340_61" x1="398.457" y1="978.213" x2="459.949" y2="978.126" gradientUnits="userSpaceOnUse">
<stop stop-color="#E4DEBE"/>
<stop offset="1" stop-color="#D24545"/>
</linearGradient>
<linearGradient id="paint6_linear_340_61" x1="204.668" y1="720.844" x2="266.161" y2="720.757" gradientUnits="userSpaceOnUse">
<stop stop-color="#FFC3C3"/>
<stop offset="1" stop-color="#E4DEBE"/>
</linearGradient>
<linearGradient id="paint7_linear_340_61" x1="1268.95" y1="906.527" x2="1270.29" y2="1749.63" gradientUnits="userSpaceOnUse">
<stop stop-color="#E4DEBE"/>
<stop offset="1" stop-color="#D24545"/>
</linearGradient>
<linearGradient id="paint8_linear_340_61" x1="1335.89" y1="1033.73" x2="1397.38" y2="1033.65" gradientUnits="userSpaceOnUse">
<stop stop-color="#E4DEBE"/>
<stop offset="1" stop-color="#D24545"/>
</linearGradient>
<linearGradient id="paint9_linear_340_61" x1="1547.25" y1="36.7607" x2="2343.86" y2="35.6316" gradientUnits="userSpaceOnUse">
<stop stop-color="#E4DEBE"/>
<stop offset="1" stop-color="#A94438"/>
</linearGradient>
<linearGradient id="paint10_linear_340_61" x1="1472.26" y1="-59.2736" x2="2179.32" y2="-60.2757" gradientUnits="userSpaceOnUse">
<stop stop-color="#E4DEBE"/>
<stop offset="1" stop-color="#D24545"/>
</linearGradient>
<linearGradient id="paint11_linear_340_61" x1="1876.38" y1="395.749" x2="1937.87" y2="395.662" gradientUnits="userSpaceOnUse">
<stop stop-color="#E4DEBE"/>
<stop offset="1" stop-color="#D24545"/>
</linearGradient>
<linearGradient id="paint12_linear_340_61" x1="1471" y1="230.55" x2="1532.49" y2="230.463" gradientUnits="userSpaceOnUse">
<stop stop-color="#E4DEBE"/>
<stop offset="1" stop-color="#D24545"/>
</linearGradient>
<clipPath id="clip0_340_61">
<rect width="1920" height="1080" fill="white"/>
</clipPath>
</defs>
</svg>
