<svg width="31" height="31" viewBox="0 0 31 31" fill="none" xmlns="http://www.w3.org/2000/svg">
<path d="M23.3637 5.65672C22.3752 5.65672 21.5665 6.47765 21.5665 7.481C21.5665 8.48435 22.3752 9.30528 23.3637 9.30528C24.3522 9.30528 25.1609 8.48435 25.1609 7.481C25.1609 6.47765 24.3522 5.65672 23.3637 5.65672ZM15.3661 7.93707C11.2325 7.93707 7.81786 11.4032 7.81786 15.599C7.81786 19.7949 11.2325 23.261 15.3661 23.261C19.4997 23.261 22.9144 19.7949 22.9144 15.599C22.9144 11.4032 19.4997 7.93707 15.3661 7.93707ZM15.3661 20.5246C12.6703 20.5246 10.5137 18.3355 10.5137 15.599C10.5137 12.8626 12.6703 10.6735 15.3661 10.6735C18.0619 10.6735 20.2186 12.8626 20.2186 15.599C20.2186 18.3355 17.9721 20.5246 15.3661 20.5246ZM30.5525 9.30528C30.5525 4.10609 26.419 0.00145952 21.3868 0.00145952H9.16576C4.13358 -0.0897544 0 4.10609 0 9.30528V21.6192C0 26.8184 4.13358 30.923 9.16576 30.923H21.2969C26.419 30.923 30.4627 26.7271 30.4627 21.6192V9.30528H30.5525ZM27.677 21.6192C27.677 25.1765 24.8015 28.0041 21.3868 28.0041H9.16576C5.66121 28.0041 2.87553 25.0853 2.87553 21.6192V9.30528C2.87553 5.74794 5.75107 2.92031 9.16576 2.92031H21.2969C24.8015 2.92031 27.5871 5.83915 27.5871 9.30528V21.6192H27.677Z" fill="black"/>
</svg>
