<svg width="1412" height="183" viewBox="0 0 1412 183" fill="none" xmlns="http://www.w3.org/2000/svg">
<g filter="url(#filter0_d_400_77)">
<path d="M5 39C5 22.4315 18.4315 9 35 9H1356C1372.57 9 1386 22.4315 1386 39V134C1386 150.569 1372.57 164 1356 164H35C18.4315 164 5 150.569 5 134V39Z" fill="white"/>
<path d="M1356 6.5H35C17.0507 6.5 2.5 21.0507 2.5 39V134C2.5 151.949 17.0507 166.5 35 166.5H1356C1373.95 166.5 1388.5 151.949 1388.5 134V39C1388.5 21.0507 1373.95 6.5 1356 6.5Z" stroke="#F5F1F1" stroke-width="5"/>
</g>
<defs>
<filter id="filter0_d_400_77" x="0" y="0.5" width="1411.5" height="182" filterUnits="userSpaceOnUse" color-interpolation-filters="sRGB">
<feFlood flood-opacity="0" result="BackgroundImageFix"/>
<feColorMatrix in="SourceAlpha" type="matrix" values="0 0 0 0 0 0 0 0 0 0 0 0 0 0 0 0 0 0 127 0" result="hardAlpha"/>
<feOffset dx="12" dy="5"/>
<feGaussianBlur stdDeviation="4.25"/>
<feComposite in2="hardAlpha" operator="out"/>
<feColorMatrix type="matrix" values="0 0 0 0 0 0 0 0 0 0 0 0 0 0 0 0 0 0 0.25 0"/>
<feBlend mode="normal" in2="BackgroundImageFix" result="effect1_dropShadow_400_77"/>
<feBlend mode="normal" in="SourceGraphic" in2="effect1_dropShadow_400_77" result="shape"/>
</filter>
</defs>
</svg>
