<svg width="30" height="25" viewBox="0 0 30 25" fill="none" xmlns="http://www.w3.org/2000/svg">
<path d="M29.6906 2.94339C28.7552 3.41813 27.7263 3.60803 26.6974 3.79792C27.1651 3.70298 27.9134 2.84844 28.194 2.46865C28.6617 1.89896 28.9423 1.32927 29.2229 0.664637C29.2229 0.569689 29.2229 0.569689 29.2229 0.47474C29.1294 0.47474 29.1294 0.47474 29.0358 0.47474C27.9134 1.13938 26.6974 1.51917 25.4814 1.89896C25.3878 1.89896 25.2943 1.89896 25.2008 1.80402C25.1072 1.70907 25.0137 1.61412 24.9201 1.51917C24.3589 1.04443 23.7977 0.664637 23.2364 0.47474C22.3946 0.0949481 21.4592 0 20.6173 0C19.7755 0.0949481 18.8401 0.284847 18.0918 0.759588C17.3435 1.13938 16.5952 1.70907 16.0339 2.46865C15.4727 3.22824 15.005 3.98782 14.8179 4.9373C14.6308 5.79183 14.6308 6.64637 14.7244 7.5009C14.7244 7.6908 14.7244 7.69079 14.6308 7.69079C9.76681 6.93121 5.65109 5.22215 2.37722 1.32927C2.19014 1.13938 2.19015 1.13938 2.00307 1.32927C0.599984 3.51308 1.25476 7.02616 3.032 8.73523C3.31262 8.92512 3.49969 9.20997 3.78031 9.39986C3.68677 9.39986 2.47076 9.30492 1.44183 8.73523C1.25475 8.64028 1.25475 8.73523 1.25475 8.83018C1.25475 9.02007 1.25475 9.30491 1.25475 9.49481C1.53537 11.6786 3.032 13.7675 5.08986 14.5271C5.37048 14.622 5.6511 14.717 5.83818 14.8119C5.37048 14.9068 4.90279 15.0018 3.4997 14.9069C3.31262 14.9069 3.31261 15.0018 3.31261 15.0967C4.34154 17.9452 6.49295 18.7997 8.17665 19.2745C8.36373 19.2745 8.64434 19.2745 8.83142 19.3694C8.27019 20.2239 6.3994 20.8886 5.46401 21.1734C3.87385 21.7431 2.09661 22.028 0.412909 21.8381C0.132292 21.8381 0.038744 21.8381 0.038744 21.8381C-0.0547951 21.8381 0.0387497 21.933 0.132289 22.028C0.506445 22.2179 0.787068 22.5027 1.16122 22.6926C2.28369 23.2623 3.40615 23.737 4.52862 24.0219C10.6087 25.7309 17.437 24.4966 21.9269 19.8442C25.4814 16.2361 26.7909 11.2988 26.7909 6.26658C26.7909 6.07668 26.978 5.98173 27.1651 5.88678C28.1005 5.22215 28.8488 4.36761 29.5035 3.41813C29.6906 3.22824 29.6906 3.03834 29.6906 2.94339C29.8777 2.94339 29.7842 2.84844 29.6906 2.94339Z" fill="black"/>
</svg>
